PathFileType	4	(X/Y/Z)	C:/Users/beibeiliu/ov580/test_trc\sequence.37_training_dense_right.trc
DataRate	CameraRate	NumFrames	NumMarkers	Units	OrigDataRate	OrigDataStartFrame	OrigNumFrames
120	120	10	19	mm	120	101	269
Frame#	Time	ThumbCMC			ThumbMCP			ThumbIP			ThumbTip			IndexMCP			IndexPIP			IndexTip			MiddleMCP			MiddlePIP			MiddleTip			RingMCP			RingPIP			RingTip			PinkyMCP			PinkyPIP			PinkyTip			BackHand1			BackHand2			BackHand3	
		X0	Y0	Z0	X1	Y1	Z1	X2	Y2	Z2	X3	Y3	Z3	X4	Y4	Z4	X5	Y5	Z5	X6	Y6	Z6	X7	Y7	Z7	X8	Y8	Z8	X9	Y9	Z9	X10	Y10	Z10	X11	Y11	Z11	X12	Y12	Z12	X13	Y13	Z13	X14	Y14	Z14	X15	Y15	Z15	X16	Y16	Z16	X17	Y17	Z17	X18	Y18	Z18	
100	0.833333	192.709	-19.7429	116.413	188.315	8.54006	100.324	175.692	25.7103	90.1308	152.798	37.3492	86.8882	144.071	-11.3557	72.1324	141.832	16.6414	63.0926	157.663	29.5335	81.5254	130.848	0.495721	82.6055	137.927	28.8391	86.5203	160.502	20.6027	104.999	125.998	7.25583	101.943	144.513	27.6455	107.966	160.198	6.3655	123.068	123.067	7.31841	120.289	141.888	23.6169	120.518	158.982	5.56124	131.73	142.875	-33.3864	124.904	154.53	-43.8096	146.82	167.158	-43.98	117.684	
101	0.841667	193.589	-17.9078	112.133	184.523	8.51014	100.466	172.971	27.1905	86.3187	157.525	40.6966	84.5029	146.838	-11.1834	67.3393	143.008	14.8676	61.3906	160.505	29.2345	83.6663	130.717	0.94498	80.8935	138.239	27.068	83.049	163.272	18.0252	105.151	128.902	7.12554	98.6201	145.033	26.3256	107.447	161.805	7.50407	120.713	125.485	4.82971	119.189	143.878	22.0592	121.411	161.446	5.05666	129.957	144.226	-34.1696	128.071	160.44	-43.3091	145.939	167.552	-43.1037	118.169	
102	0.85	193.451	-17.2455	114.989	187.915	10.5492	100.124	173.499	28.7967	86.6461	157.363	39.7494	86.7335	147.777	-12.659	70.5728	140.754	13.8858	62.6915	158.773	29.8828	82.3106	131.932	-1.94535	82.0784	138.151	28.1252	85.8536	162.039	16.6726	108.238	128.218	4.89803	101.898	144.134	26.0374	106.701	162.42	8.95	120.78	125.643	7.18069	117.934	142.872	22.1989	122.031	160.567	6.45746	130.921	144.193	-34.6882	122.654	161.816	-45.0477	147.018	170.114	-42.7644	118.613	
103	0.858333	199.437	-14.8966	114.121	187.979	11.3639	100.81	172.909	26.3977	89.3259	151.506	40.1823	83.6219	146.532	-11.528	70.344	143.911	15.7128	62.3308	162.643	29.6562	80.895	132.475	-2.65464	83.6426	140.037	26.3636	83.8374	163.043	19.3876	103.055	129.5	5.32033	98.9796	142.272	25.1914	106.92	161.426	10.1456	121.495	124.766	6.23327	118.731	141.505	22.1193	119.844	162.372	7.66212	128.979	146.369	-35.9181	124.734	166.22	-45.2668	144.507	177.802	-42.6294	115.597	
104	0.866667	199.847	-12.9056	117.559	190.778	15.0026	97.6571	172.259	26.5639	88.083	153.898	37.0143	84.8079	155.844	-13.6723	67.4019	147.177	14.9537	60.0687	160.674	28.2528	82.4293	138.08	-3.86687	76.7291	138.412	24.5015	83.2917	161.641	18.9012	104.946	130.392	2.37124	98.6446	145.624	24.5658	104.182	161.33	9.17388	122.539	126.596	0.253885	117.159	141.71	20.9121	120.414	164.715	3.66988	127.583	154.141	-38.0587	125.615	171.053	-43.5862	146.202	180.314	-39.5609	119.205	
105	0.875	204.665	-9.93262	115.737	193.442	17.0143	98.1803	174.705	29.3577	84.8887	152.113	35.3301	82.3291	160.433	-13.4809	65.5841	151.775	11.3794	58.9444	164.214	27.1543	79.1366	142.937	-6.54255	76.6666	140.113	20.6618	79.0224	164.542	17.7235	102.359	135.813	1.25289	93.4734	148.048	22.6265	101.511	165.098	12.0537	117.57	130.778	-1.70919	114.236	147.234	18.598	117.261	165.611	5.18892	126.44	158.978	-36.9231	122.048	178.044	-43.039	142.818	188.142	-36.9599	114.819	
106	0.883333	212.63	-4.26778	114.98	197.748	19.4235	97.7674	177.12	28.3178	83.4059	157.246	33.3012	80.8586	166.418	-14.212	66.1443	155.155	7.45847	58.323	167.69	26.2806	80.8127	147.527	-9.05085	74.8049	144.744	19.328	78.2232	169.496	14.7732	102.199	140.956	-3.82528	89.988	147.478	19.1957	97.5927	167.503	11.5761	113.659	134.718	-6.63292	112.93	148.276	16.4308	118.538	166.523	6.40072	128.399	163.328	-40.029	121.756	181.499	-42.8498	144.985	194.495	-36.4571	114.201	
107	0.891667	215.888	1.37925	117.47	196.182	19.5414	99.1996	178.455	27.3364	81.9361	157.925	31.8609	74.5048	179.89	-15.0978	62.4166	167.02	10.2024	53.2385	175.123	25.5658	80.2636	158.454	-12.0133	67.7099	152.161	15.0368	71.3517	167.793	15.8624	98.8512	149.106	-9.08215	85.6939	149.602	16.6469	96.7043	169.908	9.76235	111.111	139.945	-8.72978	106.076	147.94	12.8424	110.151	172.812	5.39604	121.721	172.85	-39.5323	119.42	190.102	-40.7944	139.253	204.643	-32.8826	116.273	
108	0.9	216.714	4.90179	120.636	198.906	23.6708	95.9866	183.793	31.1533	79.0624	162.089	27.1266	69.6927	192.613	-15.2066	62.501	175.15	8.74614	52.3306	180.752	24.9744	77.4781	174.919	-17.0534	67.4265	156.454	8.43972	66.857	174.252	15.1463	93.5868	156.994	-13.1134	79.0585	153.278	10.8333	89.5754	172.629	6.33714	111.518	147.632	-13.8356	97.4084	151.84	6.6026	101.51	173.472	6.87096	119.908	183.032	-39.5055	118.496	199.694	-38.1648	138.776	214.245	-30.2252	117.256	
109	0.908333	219.868	10.3441	120.902	201.611	23.8834	99.0087	185.177	27.426	76.331	166.528	22.2375	65.0126	206.005	-12.9242	62.9429	187.148	4.40927	49.1135	183.6	23.8238	76.4965	180.642	-18.6711	62.9778	168.715	6.23397	60.9787	175.258	13.0297	91.9136	165.082	-20.1228	76.9627	157.229	3.42763	81.7932	173.936	5.99318	105.775	158.322	-22.1344	90.8977	155.766	2.24354	97.0511	174.814	4.79522	113.43	193.396	-39.1407	116.606	203.015	-38.336	140.961	219.009	-24.3365	121.343	
